<svg xmlns="http://www.w3.org/2000/svg" viewBox="0 0 64 64"><g data-name="18-Guarantee"><path d="M62.41 53.59A1.955 1.955 0 0 1 63 55a2.006 2.006 0 0 1-2 2H3a1.955 1.955 0 0 1-1.41-.59A1.955 1.955 0 0 1 1 55a2.006 2.006 0 0 1 2-2h58a1.955 1.955 0 0 1 1.41.59z" style="fill:#966857"/><path d="M3 55h58a1.987 1.987 0 0 1 1.721 1A2 2 0 0 0 61 53H3a2.006 2.006 0 0 0-2 2 1.963 1.963 0 0 0 .279 1A2 2 0 0 1 3 55z" style="fill:#966857"/><path style="fill:#ff936b" d="M56 23.24 32 10 8 23.24 3 26v-5l8-4.41 8-4.42L32 5l29 16v5l-5-2.76z"/><path style="fill:#ff7045" d="M32 7 8 20.24 3 23v3l5-2.76L32 10l24 13.24L61 26v-3l-5-2.76L32 7z"/><path d="M56 23.24V53H26V27H12v26H8V23.24L32 10zM52 37v-8a2.006 2.006 0 0 0-2-2H32a2.006 2.006 0 0 0-2 2v8a2.006 2.006 0 0 0 2 2h18a2.006 2.006 0 0 0 2-2z" style="fill:#f7f7f7"/><path style="fill:#cfcfcf" d="M32 10 8 23.24v4L32 14l24 13.24v-4L32 10z"/><path d="M52 33v4a2.006 2.006 0 0 1-2 2h-7v-6z" style="fill:#a3d4ff"/><path d="M52 29v4h-9v-6h7a2.006 2.006 0 0 1 2 2z" style="fill:#65b1fc"/><path style="fill:#b2876d" d="M43 33v6h-4V27h4v6z"/><path style="fill:#966857" d="M43 33v6h-2V27h2v6z"/><path d="M39 33v6h-7a2.006 2.006 0 0 1-2-2v-4z" style="fill:#65b1fc"/><path d="M39 27v6h-9v-4a2.006 2.006 0 0 1 2-2z" style="fill:#a3d4ff"/><path style="fill:#f2d1a5" d="M12 27h14v26H12z"/><path d="M12 27v3h7a4 4 0 0 1 4 4v19h3V27z" style="fill:#f2bb88"/><path style="fill:#ff936b" d="M20 3v4H10V3h10z"/><path style="fill:#ff7045" d="M20 5v2H10V5h10z"/><path style="fill:#b2876d" d="M19 7v5.17l-8 4.42V7h8z"/><path style="fill:#966857" d="M11 7h8v3h-8z"/><g data-name="&lt;Group&gt;"><path style="fill:#cdf55f" d="M63 45v16h-8V45h8z"/><path d="M37 53h-1a1.955 1.955 0 0 1-1.41-.59 1.752 1.752 0 0 1-.35-.46A2.028 2.028 0 0 1 34 51a2.006 2.006 0 0 1 2-2h1a2.006 2.006 0 0 1-2-2 2.015 2.015 0 0 1 2-2h14l2 2h2v12h-2l-2 2H38a2.006 2.006 0 0 1-2-2 2.015 2.015 0 0 1 2-2h-1a2.015 2.015 0 0 1-2-2 2.006 2.006 0 0 1 2-2z" style="fill:#ffdecf"/><path d="M51 45h-8v-4c0-4 4-4 4-4v4z" style="fill:#ffbeaa"/><path style="fill:#c3dc4b" d="M55 45h3v16h-3z"/><path d="M63 44h-8a1 1 0 0 0-1 1v1h-.586l-1.707-1.707L48 40.586V37a1 1 0 0 0-1-1 4.821 4.821 0 0 0-5 5v3h-5a3.015 3.015 0 0 0-3 3 2.967 2.967 0 0 0 .4 1.471 2.989 2.989 0 0 0-1.045 3.947 2.67 2.67 0 0 0 .517.689 2.917 2.917 0 0 0 .528.423A2.96 2.96 0 0 0 34 55a3 3 0 0 0 1.4 2.529A2.954 2.954 0 0 0 35 59a3 3 0 0 0 3 3h13a1 1 0 0 0 .707-.293L53.414 60H54v1a1 1 0 0 0 1 1h8a1 1 0 0 0 1-1V45a1 1 0 0 0-1-1zm-19-3a2.687 2.687 0 0 1 2-2.847V41a1 1 0 0 0 .293.707L48.586 44H44zm9 17a1 1 0 0 0-.707.293L50.586 60H38a1 1 0 0 1-1-1 .977.977 0 0 1 .307-.713A.959.959 0 0 1 38 58h5v-2h-6a.977.977 0 0 1-.713-.307A.959.959 0 0 1 36 55a1 1 0 0 1 1-1h6v-2h-7a1 1 0 0 1-.729-.322.775.775 0 0 1-.15-.2A1.037 1.037 0 0 1 35 51a1 1 0 0 1 1-1h7v-2h-6a1 1 0 0 1-1-1 .977.977 0 0 1 .307-.713A.959.959 0 0 1 37 46h13.586l1.707 1.707A1 1 0 0 0 53 48h1v10zm9 2h-6V46h6z"/><path d="M27 27a1 1 0 0 0-1-1H12a1 1 0 0 0-1 1v25H9V23.832l23-12.69 23 12.69V42h2V24.935l3.517 1.94A1 1 0 0 0 62 26v-5a1 1 0 0 0-.517-.875l-29-16a.994.994 0 0 0-.966 0L20 10.476V8a1 1 0 0 0 1-1V3a1 1 0 0 0-1-1H10a1 1 0 0 0-1 1v4a1 1 0 0 0 1 1v8l-7.482 4.124A1 1 0 0 0 2 21v5a1 1 0 0 0 1.483.875L7 24.935V52H3a3 3 0 0 0-3 3 2.92 2.92 0 0 0 .873 2.107A2.937 2.937 0 0 0 3 58h29v-2H3a.977.977 0 0 1-.713-.307A.959.959 0 0 1 2 55a1 1 0 0 1 1-1h29v-2h-5zM11 4h8v2h-8zm1 4h6v3.58l-6 3.311zM4 21.591 32 6.142 60 21.59v2.716L32.483 9.125a.994.994 0 0 0-.966 0L4 24.306zM25 52H13V28h12z"/><path d="M40 39V28h2v8h2v-2h7v3a1 1 0 0 1-1 1v2a3 3 0 0 0 3-3v-8a3 3 0 0 0-3-3H32a3 3 0 0 0-3 3v8a3 3 0 0 0 3 3h8zm11-10v3h-7v-4h6a1 1 0 0 1 1 1zm-19-1h6v4h-7v-3a1 1 0 0 1 1-1zm-1 9v-3h7v4h-6a1 1 0 0 1-1-1z"/></g></g></svg>